<?xml version="1.0" encoding="UTF-8" standalone="no"?>
<!DOCTYPE svg PUBLIC "-//W3C//DTD SVG 1.1//EN"
 "http://www.w3.org/Graphics/SVG/1.1/DTD/svg11.dtd">
<!-- Generated by graphviz version 2.40.1 (20161225.0304)
 -->
<!-- Title: %3 Pages: 1 -->
<svg width="272pt" height="248pt"
 viewBox="0.00 0.00 272.00 248.00" xmlns="http://www.w3.org/2000/svg" xmlns:xlink="http://www.w3.org/1999/xlink">
<g id="graph0" class="graph" transform="scale(1 1) rotate(0) translate(4 244)">
<title>%3</title>
<polygon fill="#ffffff" stroke="transparent" points="-4,4 -4,-244 268,-244 268,4 -4,4"/>
<!-- 1 -->
<g id="1" class="node">
<title>1</title>
<polygon fill="none" stroke="#000000" points="96,-240 0,-240 0,-144 96,-144 96,-240"/>
<text text-anchor="middle" x="48" y="-191" font-family="Times,serif" font-size="5.00" fill="#000000">1: Auditor</text>
</g>
<!-- 3 -->
<g id="3" class="node">
<title>3</title>
<polygon fill="none" stroke="#000000" points="186,-72 78,-72 78,0 186,0 186,-72"/>
<text text-anchor="middle" x="132" y="-35" font-family="Times,serif" font-size="5.00" fill="#000000">3: Software System</text>
</g>
<!-- 1&#45;&gt;3 -->
<g id="4" class="edge">
<title>1&#45;&gt;3</title>
<path fill="none" stroke="#000000" d="M73.8882,-143.9219C84.6248,-123.9825 97.0172,-100.9681 107.5929,-81.3274"/>
<polygon fill="#000000" stroke="#000000" points="110.8078,-82.7394 112.4672,-72.2753 104.6445,-79.4206 110.8078,-82.7394"/>
</g>
<!-- 2 -->
<g id="2" class="node">
<title>2</title>
<polygon fill="none" stroke="#000000" points="264,-240 168,-240 168,-144 264,-144 264,-240"/>
<text text-anchor="middle" x="216" y="-191" font-family="Times,serif" font-size="5.00" fill="#000000">2: Dude</text>
</g>
<!-- 2&#45;&gt;3 -->
<g id="5" class="edge">
<title>2&#45;&gt;3</title>
<path fill="none" stroke="#000000" d="M190.1118,-143.9219C179.3752,-123.9825 166.9828,-100.9681 156.4071,-81.3274"/>
<polygon fill="#000000" stroke="#000000" points="159.3555,-79.4206 151.5328,-72.2753 153.1922,-82.7394 159.3555,-79.4206"/>
</g>
</g>
</svg>
